<svg id="Capa_1" data-name="Capa 1" xmlns="http://www.w3.org/2000/svg" viewBox="0 0 178.98 105.38"><defs><style>.cls-1{font-size:7.61px;letter-spacing:0.17em;}.cls-1,.cls-4,.cls-6{stroke:#000;}.cls-1,.cls-4{stroke-miterlimit:10;stroke-width:0.25px;}.cls-1,.cls-5,.cls-9{font-family:Palatino-Roman, Palatino;}.cls-2{letter-spacing:0.17em;}.cls-3{letter-spacing:0em;}.cls-4{fill:#fff;}.cls-5,.cls-8{font-size:12px;}.cls-6{fill:none;stroke-linejoin:round;stroke-width:0.52px;}.cls-7{fill-rule:evenodd;}.cls-8{font-family:LinLibertineI, Linux Libertine;}</style></defs><title>graph_1A4</title><text class="cls-1" transform="translate(165.74 48.56) rotate(90)">.<tspan class="cls-2" x="3.17" y="0">.</tspan><tspan class="cls-3" x="6.34" y="0">.</tspan></text><circle class="cls-4" cx="166.32" cy="11.85" r="10.47"/><text class="cls-5" transform="translate(163.32 15.6)">1</text><line class="cls-6" x1="11.56" y1="52.74" x2="66.52" y2="52.74"/><polyline class="cls-7" points="68.79 52.78 64.25 51.03 66.55 52.78 64.25 54.45 68.79 52.78"/><circle class="cls-4" cx="166.32" cy="36.06" r="10.47"/><text class="cls-5" transform="translate(163.32 39.51)">2</text><circle class="cls-4" cx="166.32" cy="93.63" r="10.47"/><text class="cls-8" transform="translate(158.22 97.08)">n<tspan class="cls-9" x="6.21" y="0">-1</tspan></text><circle class="cls-4" cx="166.32" cy="69.42" r="10.47"/><text class="cls-8" transform="translate(162.63 72.15)">n</text><circle class="cls-4" cx="15.68" cy="52.74" r="10.47"/><text class="cls-5" transform="translate(12.53 56.19)">S</text><line class="cls-6" x1="88.98" y1="46.86" x2="151.96" y2="18.51"/><polyline class="cls-7" points="154.05 17.62 149.19 17.88 152 18.54 150.59 21 154.05 17.62"/><line class="cls-6" x1="88.83" y1="51.95" x2="151.23" y2="39.98"/><polyline class="cls-7" points="153.47 39.59 148.68 38.73 151.26 40.02 149.32 42.08 153.47 39.59"/><line class="cls-6" x1="88.98" y1="60.6" x2="151.96" y2="88.96"/><polyline class="cls-7" points="154.05 89.85 149.19 89.58 152 88.92 150.59 86.47 154.05 89.85"/><line class="cls-6" x1="88.83" y1="55.51" x2="151.23" y2="67.49"/><polyline class="cls-7" points="153.47 67.87 148.68 68.73 151.26 67.44 149.32 65.38 153.47 67.87"/><circle class="cls-4" cx="85.31" cy="52.74" r="10.47"/><text class="cls-5" transform="translate(82.31 56.19)">0</text></svg>