<svg id="Capa_1" data-name="Capa 1" xmlns="http://www.w3.org/2000/svg" viewBox="0 0 481.09 359.78"><defs><style>.cls-1,.cls-12,.cls-18,.cls-19,.cls-4,.cls-5,.cls-7{fill:none;}.cls-1,.cls-12,.cls-13,.cls-14,.cls-15,.cls-16,.cls-17,.cls-18,.cls-19,.cls-3,.cls-9{stroke:#000;}.cls-1,.cls-12,.cls-13,.cls-14,.cls-15,.cls-16,.cls-17,.cls-2,.cls-3{stroke-linejoin:round;}.cls-1,.cls-12,.cls-13,.cls-14,.cls-15,.cls-16,.cls-17,.cls-18,.cls-2,.cls-3,.cls-4,.cls-5,.cls-7{stroke-width:0.52px;}.cls-1{stroke-dasharray:3.6 3.6;}.cls-14,.cls-2{fill:#ccc;}.cls-2,.cls-4,.cls-5,.cls-7{stroke:#999;}.cls-3{fill:#fff;}.cls-18,.cls-4,.cls-5,.cls-7{stroke-linecap:round;}.cls-18,.cls-19,.cls-4,.cls-5,.cls-7,.cls-9{stroke-miterlimit:10;}.cls-5{stroke-dasharray:3.6 3.6;}.cls-6{font-size:12px;}.cls-6,.cls-9{font-family:Palatino-Roman, Palatino;}.cls-7{stroke-dasharray:3.6 3.6;}.cls-8{fill-rule:evenodd;}.cls-9{font-size:7.61px;stroke-width:0.25px;letter-spacing:0.17em;}.cls-10{letter-spacing:0.17em;}.cls-11{letter-spacing:0em;}.cls-15{fill:#999;}.cls-16{fill:#666;}.cls-17{fill:#333;}.cls-19{stroke-width:0.52px;}</style></defs><title>DAG_example(400x400px)</title><line class="cls-1" x1="241.46" y1="67.85" x2="241.46" y2="273.38"/><line class="cls-1" x1="251.17" y1="67.85" x2="251.17" y2="273.38"/><line class="cls-1" x1="260.88" y1="67.85" x2="260.88" y2="273.38"/><rect class="cls-2" x="33.56" y="128.27" width="113.22" height="119.88"/><rect class="cls-2" x="356.46" y="128.27" width="113.22" height="119.88"/><polygon class="cls-3" points="271.81 89.32 271.81 110.78 469.68 110.78 469.68 67.85 271.81 67.85 271.81 89.32"/><line class="cls-4" x1="477.6" y1="5.26" x2="475.8" y2="5.26"/><line class="cls-5" x1="472.2" y1="5.26" x2="27.17" y2="5.26"/><line class="cls-4" x1="25.36" y1="5.26" x2="23.56" y2="5.26"/><line class="cls-4" x1="477.6" y1="118.57" x2="475.8" y2="118.57"/><line class="cls-5" x1="472.2" y1="118.57" x2="27.17" y2="118.57"/><line class="cls-4" x1="25.36" y1="118.57" x2="23.56" y2="118.57"/><line class="cls-4" x1="477.6" y1="166.41" x2="475.8" y2="166.41"/><line class="cls-5" x1="472.2" y1="166.41" x2="27.17" y2="166.41"/><line class="cls-4" x1="25.36" y1="166.41" x2="23.56" y2="166.41"/><line class="cls-4" x1="477.6" y1="207.91" x2="475.8" y2="207.91"/><line class="cls-5" x1="472.2" y1="207.91" x2="27.17" y2="207.91"/><line class="cls-4" x1="25.36" y1="207.91" x2="23.56" y2="207.91"/><line class="cls-4" x1="477.6" y1="255.17" x2="475.8" y2="255.17"/><line class="cls-5" x1="472.2" y1="255.17" x2="27.17" y2="255.17"/><line class="cls-4" x1="25.36" y1="255.17" x2="23.56" y2="255.17"/><line class="cls-4" x1="477.6" y1="283.07" x2="475.8" y2="283.07"/><line class="cls-5" x1="472.2" y1="283.07" x2="27.17" y2="283.07"/><line class="cls-4" x1="25.36" y1="283.07" x2="23.56" y2="283.07"/><line class="cls-4" x1="477.6" y1="52.45" x2="475.8" y2="52.45"/><line class="cls-5" x1="472.2" y1="52.45" x2="27.17" y2="52.45"/><line class="cls-4" x1="25.36" y1="52.45" x2="23.56" y2="52.45"/><text class="cls-6" transform="translate(13.27 105.41) rotate(-90)">Step 2</text><text class="cls-6" transform="translate(13.27 43.88) rotate(-90)">Step 1</text><line class="cls-4" x1="477.6" y1="355.08" x2="475.8" y2="355.08"/><line class="cls-7" x1="472.2" y1="355.08" x2="27.17" y2="355.08"/><line class="cls-4" x1="25.36" y1="355.08" x2="23.56" y2="355.08"/><text class="cls-6" transform="translate(13.27 158.45) rotate(-90)">Step 3</text><text class="cls-6" transform="translate(13.27 203.45) rotate(-90)">Step 4</text><text class="cls-6" transform="translate(13.27 248.69) rotate(-90)">Step 5</text><text class="cls-6" transform="translate(13.27 354.08) rotate(-90)">Compression</text><polyline class="cls-8" points="251.12 301.41 252.88 296.87 251.12 299.16 249.46 296.87 251.12 301.41"/><polygon class="cls-3" points="89.75 25.04 89.75 37.72 413.07 37.72 413.07 12.36 89.75 12.36 89.75 25.04"/><text class="cls-6" transform="translate(194.43 28.35)">Grayscale conversion</text><text class="cls-9" transform="translate(10.89 266.17) rotate(90)">.<tspan class="cls-10" x="3.17" y="0">.</tspan><tspan class="cls-11" x="6.34" y="0">.</tspan></text><line class="cls-12" x1="241.46" y1="45.16" x2="241.46" y2="62.87"/><polyline class="cls-8" points="241.41 65.14 243.17 60.6 241.41 62.89 239.75 60.6 241.41 65.14"/><line class="cls-12" x1="251.17" y1="37.64" x2="251.17" y2="62.87"/><polyline class="cls-8" points="251.12 65.14 252.88 60.6 251.12 62.89 249.46 60.6 251.12 65.14"/><line class="cls-12" x1="260.88" y1="45.16" x2="260.88" y2="62.87"/><polyline class="cls-8" points="260.83 65.14 262.59 60.6 260.83 62.89 259.17 60.6 260.83 65.14"/><rect class="cls-13" x="281.59" y="96.65" width="24.44" height="4.89"/><polygon class="cls-3" points="89.75 326.24 89.75 347.7 413.07 347.7 413.07 304.77 89.75 304.77 89.75 326.24"/><text class="cls-6" transform="translate(203.16 329.55)">All Reduce Compression</text><rect class="cls-12" x="166.9" y="314.02" width="24.44" height="24.44"/><line class="cls-12" x1="166.9" y1="318.9" x2="191.34" y2="318.9"/><line class="cls-12" x1="166.9" y1="323.79" x2="191.34" y2="323.79"/><line class="cls-12" x1="167.18" y1="328.68" x2="191.34" y2="328.68"/><line class="cls-12" x1="166.9" y1="333.57" x2="191.34" y2="333.57"/><rect class="cls-14" x="166.9" y="314.02" width="24.44" height="4.89"/><rect class="cls-15" x="166.9" y="318.87" width="24.44" height="4.89"/><rect class="cls-16" x="166.9" y="323.83" width="24.44" height="4.89"/><rect class="cls-17" x="166.9" y="328.68" width="24.44" height="4.89"/><rect class="cls-13" x="166.9" y="333.57" width="24.44" height="4.89"/><line class="cls-18" x1="23.56" y1="5.26" x2="23.56" y2="355.08"/><line class="cls-12" x1="90.17" y1="113.32" x2="90.17" y2="123.46"/><polyline class="cls-8" points="90.12 125.73 91.88 121.19 90.12 123.48 88.46 121.19 90.12 125.73"/><line class="cls-12" x1="90.17" y1="250.1" x2="90.17" y2="260.24"/><polyline class="cls-8" points="90.12 262.51 91.88 257.96 90.12 260.26 88.46 257.96 90.12 262.51"/><polygon class="cls-3" points="33.56 89.32 33.56 110.78 231.43 110.78 231.43 67.85 33.56 67.85 33.56 89.32"/><text class="cls-9" transform="translate(89.75 265.45) rotate(90)">.<tspan class="cls-10" x="3.17" y="0">.</tspan><tspan class="cls-11" x="6.34" y="0">.</tspan></text><polyline class="cls-8" points="90.17 65.14 91.92 60.6 90.17 62.89 88.51 60.6 90.17 65.14"/><text class="cls-6" transform="translate(79.59 85.43)">Partitioning: Rows 0-79<tspan x="0" y="14.4">(Blocks 0-499)</tspan></text><rect class="cls-12" x="43.34" y="77.1" width="24.44" height="24.44"/><line class="cls-12" x1="43.34" y1="81.99" x2="67.77" y2="81.99"/><line class="cls-12" x1="43.34" y1="86.88" x2="67.77" y2="86.88"/><line class="cls-12" x1="43.61" y1="91.76" x2="67.77" y2="91.76"/><line class="cls-12" x1="43.34" y1="96.65" x2="67.77" y2="96.65"/><rect class="cls-14" x="43.34" y="77.1" width="24.44" height="4.89"/><line class="cls-12" x1="90.17" y1="161.34" x2="90.17" y2="171.48"/><polyline class="cls-8" points="90.12 173.75 91.88 169.21 90.12 171.5 88.46 169.21 90.12 173.75"/><line class="cls-12" x1="90.17" y1="202.84" x2="90.17" y2="212.98"/><polyline class="cls-8" points="90.12 215.25 91.88 210.71 90.12 213 88.46 210.71 90.12 215.25"/><polygon class="cls-3" points="39.38 146.71 39.38 158.8 140.96 158.8 140.96 134.61 39.38 134.61 39.38 146.71"/><text class="cls-6" transform="translate(52.91 150.02)">DCT (Block 0)</text><polygon class="cls-3" points="39.38 188.38 39.38 200.48 140.96 200.48 140.96 176.29 39.38 176.29 39.38 188.38"/><text class="cls-6" transform="translate(60.77 191.7)">Q (Block 0)</text><polygon class="cls-3" points="39.38 229.71 39.38 241.8 140.96 241.8 140.96 217.61 39.38 217.61 39.38 229.71"/><text class="cls-6" transform="translate(50.89 233.02)">IDCT (Block 0)</text><line class="cls-12" x1="413.07" y1="113.32" x2="413.07" y2="123.46"/><polyline class="cls-8" points="413.03 125.73 414.78 121.19 413.03 123.48 411.36 121.19 413.03 125.73"/><line class="cls-12" x1="413.07" y1="250.1" x2="413.07" y2="260.24"/><polyline class="cls-8" points="413.03 262.51 414.78 257.96 413.03 260.26 411.36 257.96 413.03 262.51"/><text class="cls-9" transform="translate(412.65 265.45) rotate(90)">.<tspan class="cls-10" x="3.17" y="0">.</tspan><tspan class="cls-11" x="6.34" y="0">.</tspan></text><polyline class="cls-8" points="413.03 65.14 414.78 60.6 413.03 62.89 411.36 60.6 413.03 65.14"/><text class="cls-6" transform="translate(317.84 85.43)">Partitioning: Rows 320-399<tspan x="0" y="14.4">(Blocks 2000-2499)</tspan></text><rect class="cls-12" x="281.59" y="77.1" width="24.44" height="24.44"/><line class="cls-12" x1="281.59" y1="81.99" x2="306.03" y2="81.99"/><line class="cls-12" x1="281.59" y1="86.88" x2="306.03" y2="86.88"/><line class="cls-12" x1="281.86" y1="91.76" x2="306.03" y2="91.76"/><line class="cls-12" x1="281.59" y1="96.65" x2="306.03" y2="96.65"/><line class="cls-12" x1="413.07" y1="161.34" x2="413.07" y2="171.48"/><polyline class="cls-8" points="413.03 173.75 414.78 169.21 413.03 171.5 411.36 169.21 413.03 173.75"/><line class="cls-12" x1="413.07" y1="202.84" x2="413.07" y2="212.98"/><polyline class="cls-8" points="413.03 215.25 414.78 210.71 413.03 213 411.36 210.71 413.03 215.25"/><polygon class="cls-3" points="362.28 146.71 362.28 158.8 463.86 158.8 463.86 134.61 362.28 134.61 362.28 146.71"/><text class="cls-6" transform="translate(366.82 150.02)">DCT (Block 2000)</text><polygon class="cls-3" points="362.28 188.38 362.28 200.48 463.86 200.48 463.86 176.29 362.28 176.29 362.28 188.38"/><text class="cls-6" transform="translate(374.67 191.7)">Q (Block 2000)</text><polygon class="cls-3" points="362.28 229.71 362.28 241.8 463.86 241.8 463.86 217.61 362.28 217.61 362.28 229.71"/><text class="cls-6" transform="translate(364.79 233.02)">IDCT (Block 2000)</text><polyline class="cls-12" points="241.46 276.65 241.46 289.09 260.88 289.09 260.88 276.65"/><line class="cls-12" x1="251.17" y1="299.14" x2="251.17" y2="276.65"/><polyline class="cls-12" points="251.17 289.09 413.07 289.09 413.07 276.65"/><polyline class="cls-12" points="251.17 289.09 90.17 289.09 90.17 276.65"/><polyline class="cls-18" points="90.17 63.71 90.17 45.16 413.07 45.16 413.07 63.71"/><text class="cls-6" transform="translate(166.55 182.98)">Loop for<tspan x="0" y="14.4">500 blocks</tspan></text><text class="cls-6" transform="translate(290.24 182.98)">Loop for<tspan x="-8.84" y="14.4">500 blocks</tspan></text><path class="cls-19" d="M351,248.15h-.29a4.51,4.51,0,0,1-4.51-4.51V191.7a4.51,4.51,0,0,0-4.51-4.51h0a4.51,4.51,0,0,0,4.51-4.51v-49.9a4.51,4.51,0,0,1,4.51-4.51H351"/><path class="cls-19" d="M151.42,128.27h.29a4.51,4.51,0,0,1,4.51,4.51v49.9a4.51,4.51,0,0,0,4.51,4.51h0a4.51,4.51,0,0,0-4.51,4.51v51.94a4.51,4.51,0,0,1-4.51,4.51h-.29"/></svg>