<svg id="Capa_1" data-name="Capa 1" xmlns="http://www.w3.org/2000/svg" viewBox="0 0 590.4 475.85"><defs><style>.cls-1,.cls-18,.cls-3,.cls-5{fill:none;}.cls-1{stroke:#999;}.cls-1,.cls-18{stroke-linecap:round;}.cls-1,.cls-10,.cls-13,.cls-18,.cls-7{stroke-miterlimit:10;}.cls-1,.cls-18,.cls-19,.cls-20,.cls-21,.cls-22,.cls-23,.cls-3,.cls-5,.cls-6{stroke-width:0.52px;}.cls-1,.cls-5{stroke-dasharray:3.6 3.6;}.cls-2{font-size:12px;}.cls-10,.cls-13,.cls-2,.cls-7{font-family:Palatino-Roman, Palatino;}.cls-10,.cls-13,.cls-18,.cls-19,.cls-20,.cls-21,.cls-22,.cls-23,.cls-3,.cls-5,.cls-6,.cls-7{stroke:#000;}.cls-19,.cls-20,.cls-21,.cls-22,.cls-23,.cls-3,.cls-5,.cls-6{stroke-linejoin:round;}.cls-4{fill-rule:evenodd;}.cls-6{fill:#fff;}.cls-13,.cls-7{font-size:7.61px;}.cls-10,.cls-13,.cls-7{stroke-width:0.25px;}.cls-7{letter-spacing:0.17em;}.cls-8{letter-spacing:0.17em;}.cls-9{letter-spacing:0em;}.cls-10{font-size:7.43px;}.cls-11{letter-spacing:0.17em;}.cls-12{letter-spacing:0.17em;}.cls-14{letter-spacing:0.17em;}.cls-15{letter-spacing:0.17em;}.cls-16{letter-spacing:0.17em;}.cls-17{letter-spacing:0.17em;}.cls-19{fill:#ccc;}.cls-21{fill:#999;}.cls-22{fill:#666;}.cls-23{fill:#333;}</style></defs><title>DAG_example(400x400px)</title><line class="cls-1" x1="583.28" y1="5.26" x2="25.49" y2="5.26"/><line class="cls-1" x1="583.28" y1="118.57" x2="25.49" y2="118.57"/><line class="cls-1" x1="583.28" y1="160.07" x2="25.49" y2="160.07"/><line class="cls-1" x1="583.28" y1="201.57" x2="25.49" y2="201.57"/><line class="cls-1" x1="583.28" y1="242.89" x2="25.49" y2="242.89"/><line class="cls-1" x1="583.28" y1="271.26" x2="25.49" y2="271.26"/><line class="cls-1" x1="583.28" y1="312.13" x2="25.49" y2="312.13"/><line class="cls-1" x1="583.28" y1="353.63" x2="25.49" y2="353.63"/><line class="cls-1" x1="583.28" y1="403.09" x2="25.49" y2="403.09"/><line class="cls-1" x1="583.28" y1="52.45" x2="25.49" y2="52.45"/><text class="cls-2" transform="translate(15.19 105.41) rotate(-90)">Step 2</text><text class="cls-2" transform="translate(15.19 43.88) rotate(-90)">Step 1</text><line class="cls-1" x1="583.28" y1="468.77" x2="25.49" y2="468.77"/><text class="cls-2" transform="translate(15.19 156.45) rotate(-90)">Step 3</text><text class="cls-2" transform="translate(15.19 198.12) rotate(-90)">Step 4</text><text class="cls-2" transform="translate(15.19 239.45) rotate(-90)">Step 5</text><text class="cls-2" transform="translate(15.19 308.52) rotate(-90)">Step 3</text><text class="cls-2" transform="translate(15.19 350.19) rotate(-90)">Step 4</text><text class="cls-2" transform="translate(15.19 391.52) rotate(-90)">Step 5</text><text class="cls-2" transform="translate(15.19 468.77) rotate(-90)">Compression</text><line class="cls-3" x1="89.01" y1="155" x2="89.01" y2="165.13"/><polyline class="cls-4" points="88.97 167.4 90.72 162.86 88.97 165.15 87.31 162.86 88.97 167.4"/><line class="cls-3" x1="89.01" y1="113.5" x2="89.01" y2="123.63"/><polyline class="cls-4" points="88.97 125.9 90.72 121.36 88.97 123.66 87.31 121.36 88.97 125.9"/><line class="cls-3" x1="301.02" y1="45.16" x2="301.02" y2="62.87"/><polyline class="cls-4" points="300.98 65.14 302.73 60.6 300.98 62.89 299.31 60.6 300.98 65.14"/><line class="cls-3" x1="310.73" y1="37.64" x2="310.73" y2="62.87"/><polyline class="cls-4" points="310.69 65.14 312.44 60.6 310.69 62.89 309.02 60.6 310.69 65.14"/><line class="cls-3" x1="320.44" y1="45.16" x2="320.44" y2="62.87"/><polyline class="cls-4" points="320.4 65.14 322.15 60.6 320.4 62.89 318.73 60.6 320.4 65.14"/><line class="cls-5" x1="301.02" y1="67.85" x2="301.02" y2="393.16"/><line class="cls-5" x1="310.73" y1="67.85" x2="310.73" y2="393.16"/><line class="cls-5" x1="320.44" y1="67.85" x2="320.44" y2="393.16"/><polyline class="cls-4" points="163.17 65.14 164.92 60.6 163.17 62.89 161.5 60.6 163.17 65.14"/><polyline class="cls-4" points="458.25 65.14 460 60.6 458.25 62.89 456.59 60.6 458.25 65.14"/><line class="cls-3" x1="163.21" y1="396.66" x2="163.21" y2="410.16"/><polyline class="cls-4" points="163.17 412.43 164.92 407.89 163.17 410.18 161.5 407.89 163.17 412.43"/><line class="cls-3" x1="89.01" y1="196.5" x2="89.01" y2="206.63"/><polyline class="cls-4" points="88.97 208.9 90.72 204.36 88.97 206.65 87.31 204.36 88.97 208.9"/><line class="cls-3" x1="89.01" y1="237.82" x2="89.01" y2="247.96"/><polyline class="cls-4" points="88.97 250.23 90.72 245.69 88.97 247.98 87.31 245.69 88.97 250.23"/><polygon class="cls-6" points="38.23 89.32 38.23 110.78 288.2 110.78 288.2 67.85 38.23 67.85 38.23 89.32"/><polygon class="cls-6" points="185.74 25.04 185.74 37.72 435.72 37.72 435.72 12.36 185.74 12.36 185.74 25.04"/><text class="cls-2" transform="translate(254 28.35)">Grayscale conversion</text><line class="cls-3" x1="237.41" y1="307.07" x2="237.41" y2="317.2"/><polyline class="cls-4" points="237.36 319.47 239.12 314.93 237.36 317.22 235.7 314.93 237.36 319.47"/><line class="cls-3" x1="237.4" y1="113.5" x2="237.39" y2="247.96"/><polyline class="cls-4" points="237.35 250.23 239.08 245.69 237.35 247.98 235.7 245.69 237.35 250.23"/><line class="cls-3" x1="237.41" y1="348.57" x2="237.41" y2="358.7"/><polyline class="cls-4" points="237.36 360.97 239.12 356.43 237.36 358.72 235.7 356.43 237.36 360.97"/><polygon class="cls-6" points="186.62 334.11 186.62 346.2 288.2 346.2 288.2 322.01 186.62 322.01 186.62 334.11"/><text class="cls-2" transform="translate(202.01 337.42)">Q (Block 499)</text><polygon class="cls-6" points="186.62 375.43 186.62 387.53 288.2 387.53 288.2 363.34 186.62 363.34 186.62 375.43"/><text class="cls-2" transform="translate(192.13 378.74)">IDCT (Block 499)</text><polygon class="cls-6" points="186.62 292.43 186.62 304.53 288.2 304.53 288.2 280.34 186.62 280.34 186.62 292.43"/><text class="cls-2" transform="translate(194.15 295.75)">DCT (Block 499)</text><polygon class="cls-6" points="38.23 140.36 38.23 152.46 139.8 152.46 139.8 128.27 38.23 128.27 38.23 140.36"/><text class="cls-2" transform="translate(51.76 143.68)">DCT (Block 0)</text><polygon class="cls-6" points="38.23 182.04 38.23 194.13 139.8 194.13 139.8 169.94 38.23 169.94 38.23 182.04"/><text class="cls-2" transform="translate(59.61 185.35)">Q (Block 0)</text><polygon class="cls-6" points="38.23 223.36 38.23 235.46 139.8 235.46 139.8 211.27 38.23 211.27 38.23 223.36"/><text class="cls-2" transform="translate(49.74 226.68)">IDCT (Block 0)</text><text class="cls-7" transform="translate(159.12 183.99)">.<tspan class="cls-8" x="3.17" y="0">.</tspan><tspan class="cls-9" x="6.34" y="0">.</tspan></text><text class="cls-7" transform="translate(159.12 321.01)">.<tspan class="cls-8" x="3.17" y="0">.</tspan><tspan class="cls-9" x="6.34" y="0">.</tspan></text><line class="cls-3" x1="152" y1="113.5" x2="151.99" y2="247.96"/><polyline class="cls-4" points="151.95 250.23 153.7 245.69 151.95 247.98 150.28 245.69 151.95 250.23"/><line class="cls-3" x1="151.99" y1="265.73" x2="151.99" y2="396.65"/><text class="cls-7" transform="translate(151.57 253.89) rotate(90)">.<tspan class="cls-8" x="3.17" y="0">.</tspan><tspan class="cls-9" x="6.34" y="0">.</tspan></text><line class="cls-3" x1="174.42" y1="113.5" x2="174.43" y2="247.96"/><polyline class="cls-4" points="174.47 250.23 172.72 245.69 174.47 247.98 176.14 245.69 174.47 250.23"/><line class="cls-3" x1="174.43" y1="265.73" x2="174.43" y2="396.65"/><text class="cls-7" transform="matrix(0, 1, 1, 0, 174.85, 253.89)">.<tspan class="cls-8" x="3.17" y="0">.</tspan><tspan class="cls-9" x="6.34" y="0">.</tspan></text><polyline class="cls-3" points="89.02 265.73 89.01 396.65 237.41 396.65 237.41 387.53"/><text class="cls-7" transform="translate(88.6 253.89) rotate(90)">.<tspan class="cls-8" x="3.17" y="0">.</tspan><tspan class="cls-9" x="6.34" y="0">.</tspan></text><text class="cls-7" transform="translate(12.52 253.89) rotate(90)">.<tspan class="cls-8" x="3.17" y="0">.</tspan><tspan class="cls-9" x="6.34" y="0">.</tspan></text><line class="cls-3" x1="237.41" y1="265.73" x2="237.41" y2="275.86"/><polyline class="cls-4" points="237.36 278.13 239.12 273.59 237.36 275.88 235.7 273.59 237.36 278.13"/><text class="cls-7" transform="translate(237.01 253.89) rotate(90)">.<tspan class="cls-8" x="3.17" y="0">.</tspan><tspan class="cls-9" x="6.34" y="0">.</tspan></text><line class="cls-3" x1="384.1" y1="155" x2="384.1" y2="165.13"/><polyline class="cls-4" points="384.05 167.4 385.81 162.86 384.05 165.15 382.39 162.86 384.05 167.4"/><line class="cls-3" x1="384.1" y1="113.5" x2="384.1" y2="123.63"/><polyline class="cls-4" points="384.05 125.9 385.81 121.36 384.05 123.66 382.39 121.36 384.05 125.9"/><line class="cls-3" x1="384.1" y1="196.5" x2="384.1" y2="206.63"/><polyline class="cls-4" points="384.05 208.9 385.81 204.36 384.05 206.65 382.39 204.36 384.05 208.9"/><line class="cls-3" x1="384.1" y1="237.82" x2="384.1" y2="247.96"/><polyline class="cls-4" points="384.05 250.23 385.81 245.69 384.05 247.98 382.39 245.69 384.05 250.23"/><line class="cls-3" x1="532.48" y1="113.5" x2="532.48" y2="247.96"/><polyline class="cls-4" points="532.43 250.23 534.17 245.69 532.43 247.98 530.78 245.69 532.43 250.23"/><polygon class="cls-6" points="333.31 140.36 333.31 152.46 434.89 152.46 434.89 128.27 333.31 128.27 333.31 140.36"/><text class="cls-2" transform="translate(337.84 143.68)">DCT (Block 2000)</text><polygon class="cls-6" points="333.31 182.04 333.31 194.13 434.89 194.13 434.89 169.94 333.31 169.94 333.31 182.04"/><text class="cls-2" transform="translate(345.7 185.35)">Q (Block 2000)</text><polygon class="cls-6" points="333.31 223.36 333.31 235.46 434.89 235.46 434.89 211.27 333.31 211.27 333.31 223.36"/><text class="cls-2" transform="translate(335.82 226.68)">IDCT (Block 2000)</text><text class="cls-7" transform="translate(454.2 183.99)">.<tspan class="cls-8" x="3.17" y="0">.</tspan><tspan class="cls-9" x="6.34" y="0">.</tspan></text><line class="cls-3" x1="447.09" y1="113.5" x2="447.08" y2="247.96"/><polyline class="cls-4" points="447.03 250.23 448.79 245.69 447.03 247.98 445.37 245.69 447.03 250.23"/><line class="cls-3" x1="469.51" y1="113.5" x2="469.51" y2="247.96"/><polyline class="cls-4" points="469.56 250.23 467.81 245.69 469.56 247.98 471.22 245.69 469.56 250.23"/><text class="cls-10" transform="translate(454.2 319.46) scale(1.02 1)"><tspan class="cls-11">.</tspan><tspan class="cls-12" x="3.1" y="0">.</tspan><tspan x="6.19" y="0">.</tspan></text><line class="cls-3" x1="447.08" y1="265.45" x2="447.08" y2="396.65"/><text class="cls-13" transform="translate(446.66 253.89) rotate(90) scale(0.98 1)"><tspan class="cls-14">.</tspan><tspan class="cls-15" x="3.17" y="0">.</tspan><tspan x="6.34" y="0">.</tspan></text><line class="cls-3" x1="469.51" y1="265.45" x2="469.52" y2="396.65"/><text class="cls-13" transform="matrix(0, 0.98, 1, 0, 469.93, 253.89)"><tspan class="cls-14">.</tspan><tspan class="cls-15" x="3.17" y="0">.</tspan><tspan x="6.34" y="0">.</tspan></text><polyline class="cls-3" points="384.1 265.45 384.1 396.65 532.49 396.65 532.49 386.75"/><text class="cls-13" transform="translate(383.68 253.89) rotate(90) scale(0.98 1)"><tspan class="cls-16">.</tspan><tspan class="cls-17" x="3.17" y="0">.</tspan><tspan x="6.34" y="0">.</tspan></text><line class="cls-3" x1="532.49" y1="307.07" x2="532.49" y2="317.2"/><polyline class="cls-4" points="532.45 319.47 534.2 314.93 532.45 317.22 530.78 314.93 532.45 319.47"/><line class="cls-3" x1="532.49" y1="348.57" x2="532.49" y2="358.7"/><polyline class="cls-4" points="532.45 360.97 534.2 356.43 532.45 358.72 530.78 356.43 532.45 360.97"/><polygon class="cls-6" points="481.7 334.11 481.7 346.2 583.28 346.2 583.28 322.01 481.7 322.01 481.7 334.11"/><text class="cls-2" transform="translate(494.09 337.42)">Q (Block 2499)</text><polygon class="cls-6" points="481.7 375.43 481.7 387.53 583.28 387.53 583.28 363.34 481.7 363.34 481.7 375.43"/><text class="cls-2" transform="translate(484.22 378.74)">IDCT (Block 2499)</text><polygon class="cls-6" points="481.7 292.43 481.7 304.53 583.28 304.53 583.28 280.34 481.7 280.34 481.7 292.43"/><text class="cls-2" transform="translate(486.24 295.75)">DCT (Block 2499)</text><line class="cls-3" x1="532.49" y1="265.73" x2="532.49" y2="275.86"/><polyline class="cls-4" points="532.45 278.13 534.2 273.59 532.45 275.88 530.78 273.59 532.45 278.13"/><text class="cls-7" transform="translate(532.09 253.89) rotate(90)">.<tspan class="cls-8" x="3.17" y="0">.</tspan><tspan class="cls-9" x="6.34" y="0">.</tspan></text><polyline class="cls-18" points="458.3 63.66 458.3 45.49 163.21 44.82 163.17 62.31"/><text class="cls-2" transform="translate(114.29 85.43)">Partitioning<tspan x="0" y="14.4">(Rows 0-79: Blocks 0-499)</tspan></text><rect class="cls-3" x="78.03" y="77.1" width="24.44" height="24.44"/><line class="cls-3" x1="78.03" y1="81.99" x2="102.47" y2="81.99"/><line class="cls-3" x1="78.03" y1="86.88" x2="102.47" y2="86.88"/><line class="cls-3" x1="78.31" y1="91.76" x2="102.47" y2="91.76"/><line class="cls-3" x1="78.03" y1="96.65" x2="102.47" y2="96.65"/><rect class="cls-19" x="78.03" y="77.1" width="24.44" height="4.89"/><polygon class="cls-6" points="333.31 89.32 333.31 110.78 583.28 110.78 583.28 67.85 333.31 67.85 333.31 89.32"/><text class="cls-2" transform="translate(388.37 85.43)">Partitioning<tspan x="0" y="14.4">(Rows 320-399: Blocks 2000-2499)</tspan></text><rect class="cls-3" x="352.12" y="77.1" width="24.44" height="24.44"/><line class="cls-3" x1="352.12" y1="81.99" x2="376.55" y2="81.99"/><line class="cls-3" x1="352.12" y1="86.88" x2="376.55" y2="86.88"/><line class="cls-3" x1="352.39" y1="91.76" x2="376.55" y2="91.76"/><line class="cls-3" x1="352.12" y1="96.65" x2="376.55" y2="96.65"/><rect class="cls-20" x="352.12" y="96.65" width="24.44" height="4.89"/><line class="cls-3" x1="301.02" y1="396.65" x2="301.02" y2="436.68"/><line class="cls-3" x1="310.73" y1="396.65" x2="310.73" y2="436.68"/><line class="cls-3" x1="320.44" y1="396.65" x2="320.44" y2="436.68"/><polyline class="cls-4" points="292.15 436.63 296.69 438.39 294.4 436.63 296.69 434.97 292.15 436.63"/><polyline class="cls-18" points="294.04 436.68 459.3 436.68 459.3 396.65"/><polygon class="cls-6" points="38.23 436.68 38.23 458.14 288.2 458.14 288.2 415.21 38.23 415.21 38.23 436.68"/><text class="cls-2" transform="translate(115.2 439.99)">All Reduce Compression</text><rect class="cls-3" x="78.95" y="424.46" width="24.44" height="24.44"/><line class="cls-3" x1="78.95" y1="429.35" x2="103.38" y2="429.35"/><line class="cls-3" x1="78.95" y1="434.24" x2="103.38" y2="434.24"/><line class="cls-3" x1="79.22" y1="439.12" x2="103.38" y2="439.12"/><line class="cls-3" x1="78.95" y1="444.01" x2="103.38" y2="444.01"/><rect class="cls-19" x="78.95" y="424.46" width="24.44" height="4.89"/><rect class="cls-21" x="78.95" y="429.31" width="24.44" height="4.89"/><rect class="cls-22" x="78.95" y="434.27" width="24.44" height="4.89"/><rect class="cls-23" x="78.95" y="439.12" width="24.44" height="4.89"/><rect class="cls-20" x="78.95" y="444.01" width="24.44" height="4.89"/><line class="cls-18" x1="25.49" y1="5.26" x2="25.49" y2="468.77"/></svg>